<svg xmlns="http://www.w3.org/2000/svg" viewBox="0 0 429.23 158.52"><defs><style>.cls-1{fill:#13224a;}.cls-2{fill:#005c97;}.cls-3{fill:#4da0d8;}.cls-4{fill:#fff;}</style></defs><g id="Layer_2" data-name="Layer 2"><g id="Layer_1-2" data-name="Layer 1"><path class="cls-1" d="M142.06,99.93l5-10a21.58,21.58,0,0,0,12,4.24c3.35,0,4.94-1,4.94-2.47,0-5.21-20.75-5.57-20.75-20.23,0-7.68,6.27-13.33,16.43-13.33a27,27,0,0,1,15.89,5L170.76,73c-3.35-2-7.06-3.71-11.12-3.71-2.83,0-4.07,1.06-4.07,2.29,0,5.39,20.76,4.42,20.76,19.87,0,8.57-6.45,13.86-16.69,13.86A29.5,29.5,0,0,1,142.06,99.93Z"/><path class="cls-1" d="M210.77,100.37H195.93l-1.15,4.33H182.33l13.42-45.92H211l13.33,45.92H211.91Zm-2.83-10.51L203.35,72.2l-4.68,17.66Z"/><path class="cls-1" d="M285.56,58.78,275.05,104.7h-8.56l-9.36-25.88-9.36,25.88H239.2L228.69,58.78H241l4.5,22.43L253,58.78h8.3l7.59,22.43,4.42-22.43Z"/><path class="cls-1" d="M318.32,100.37H303.49l-1.15,4.33H289.89l13.42-45.92h15.28l13.33,45.92H319.47ZM315.5,89.86,310.9,72.2l-4.68,17.66Z"/><path class="cls-1" d="M363.8,93.22V104.7H338.19V58.78h12V93.22Z"/><path class="cls-1" d="M380.93,58.78V104.7h-12V58.78Z"/><path class="cls-1" d="M415.64,100.37H400.8l-1.15,4.33H387.2l13.42-45.92H415.9l13.33,45.92H416.78Zm-2.83-10.51L408.22,72.2l-4.68,17.66Z"/><path class="cls-1" d="M68.24,1C51.23,8,5.9,36.12,63.65,127.66L99,140.33c5.37,1.93,10.43-2.53,8.72-7.74-7.94-24.2-18.81-77.06,26-102.51,4.12-2.35,3.1-8.45-1.63-10.15L79.17,1A15.35,15.35,0,0,0,68.24,1Z"/><path class="cls-2" d="M25.59,44.17C16.71,56-8.85,100.93,68,148.21a11.37,11.37,0,0,0,7.41,1.59L96.55,147a9.4,9.4,0,0,0,6.62-14.86C91.75,115,75.42,83.15,86.49,53.4c3.78-10.13-5.67-21.06-16.88-19.19l-37.84,6.3A9.58,9.58,0,0,0,25.59,44.17Z"/><path class="cls-3" d="M2.85,68.91c-5.47,17-11.1,61.67,65.62,88.56a17.47,17.47,0,0,0,12.2-.1l21.74-8.65c4.27-1.7,4.66-7.34.66-10.05C86.19,127.23,54.31,99.88,66.3,62.56,68.41,56,61.81,49.27,54.76,50.87L12.45,60.45A12.82,12.82,0,0,0,2.85,68.91Z"/><path class="cls-4" d="M19,86A32.41,32.41,0,0,1,10.3,85a.91.91,0,0,1-.62-1.12.89.89,0,0,1,1.12-.63C22.07,86.38,42,81.29,50.42,74.87a.93.93,0,0,1,1.28.18.91.91,0,0,1-.17,1.28C44.62,81.59,30.57,86,19,86Z"/><path class="cls-4" d="M37.39,133.71a27.38,27.38,0,0,1-4.33-.32.92.92,0,0,1-.75-1,.91.91,0,0,1,1-.76c11.19,1.85,29.54-5.07,36.73-12a.91.91,0,0,1,1.27,1.31C64.68,127.33,49.18,133.71,37.39,133.71Z"/><path class="cls-4" d="M23.34,104.17a35.82,35.82,0,0,1-11.52-1.93.92.92,0,0,1-.57-1.16.91.91,0,0,1,1.15-.57c15.75,5.33,29.23-1.85,41.47-10.37a.91.91,0,1,1,1,1.49C45.34,98.31,35,104.17,23.34,104.17Z"/><path class="cls-4" d="M30.1,120.14A44.7,44.7,0,0,1,18,118.4a.93.93,0,0,1-.63-1.13.91.91,0,0,1,1.13-.63C37,121.83,50,114.05,61.36,104.89a.91.91,0,1,1,1.14,1.42C53.39,113.66,43.2,120.14,30.1,120.14Z"/></g></g></svg>